PathFileType	4	(X/Y/Z)	E:\Qualisys_Data\Carbon_Farble_Plate\Data\Amateur_Runner\S14\T1\S14T1V12_c3d.trc
DataRate	CameraRate	NumFrames	NumMarkers	Units	OrigDataRate	OrigDataStartFrame	OrigNumFrames
200.000000	200.000000	5	39	mm	200.000000	169	338
Frame#	Time	LSHO			RSHO			LICST			RICST			LASIS			LHEEL			RASIS			LTROC			RTROC			SACR			LTH1			LSK4			LTH2			LTH3			RHM5			LSK2			LTH4			RTH1			LTOE			RTH2			RTH3			RTH4			LLEP			RLEP			LSK1			LSK3			RSK1			LHM5			RSK2			LFT1			RSK3			RSK4			LLME			RLME			RTOE			RHEEL			RFT1			RFT2			LFT2			
		X1	Y1	Z1	X2	Y2	Z2	X3	Y3	Z3	X4	Y4	Z4	X5	Y5	Z5	X6	Y6	Z6	X7	Y7	Z7	X8	Y8	Z8	X9	Y9	Z9	X10	Y10	Z10	X11	Y11	Z11	X12	Y12	Z12	X13	Y13	Z13	X14	Y14	Z14	X15	Y15	Z15	X16	Y16	Z16	X17	Y17	Z17	X18	Y18	Z18	X19	Y19	Z19	X20	Y20	Z20	X21	Y21	Z21	X22	Y22	Z22	X23	Y23	Z23	X24	Y24	Z24	X25	Y25	Z25	X26	Y26	Z26	X27	Y27	Z27	X28	Y28	Z28	X29	Y29	Z29	X30	Y30	Z30	X31	Y31	Z31	X32	Y32	Z32	X33	Y33	Z33	X34	Y34	Z34	X35	Y35	Z35	X36	Y36	Z36	X37	Y37	Z37	X38	Y38	Z38	X39	Y39	Z39	

170	0.845	345.2991333007812	1446.450073242188	-470.0530090332031	280.8089599609375	1449.998413085938	-182.1528930664062	294.830322265625	991.63671875	-457.8170471191406	301.8689270019531	1001.835815429688	-183.0264739990234	331.3394775390625	940.3746948242188	-430.808349609375	-243.5676574707031	443.7694396972656	-353.031494140625	329.6780090332031	958.6686401367188	-201.0224456787109	174.4523010253906	880.3154907226562	-475.3500366210938	190.7505645751953	904.883056640625	-152.1245880126953	160.7787322998047	1004.171447753906	-329.6607360839844	211.5376892089844	645.97216796875	-476.2531433105469	-69.12357330322266	476.1514892578125	-435.3248901367188	134.1869201660156	661.5862426757812	-455.770263671875	198.6814575195312	548.1010131835938	-459.1967468261719	581.2759399414062	106.0224533081055	-179.3295593261719	23.55203056335449	505.0887451171875	-456.2181091308594	120.3891525268555	565.3377075195312	-440.5098876953125	387.4722595214844	694.1134033203125	-147.2017364501953	-266.0865478515625	185.5281219482422	-377.1344909667969	311.6279296875	669.0570678710938	-141.3228759765625	421.9967041015625	605.6365356445312	-183.5771331787109	342.5615539550781	574.83349609375	-166.9987030029297	143.0298614501953	494.212890625	-452.315185546875	388.4942626953125	516.0524291992188	-178.0813293457031	49.9461784362793	426.9783325195312	-451.2379760742188	-46.68338394165039	398.2811584472656	-434.2918395996094	434.27734375	400.4812316894531	-175.5434265136719	-282.515869140625	253.8774566650391	-433.6722106933594	350.2158508300781	384.0023193359375	-180.651123046875	-265.4861450195312	429.2741394042969	-322.2704162597656	448.41552734375	298.3200988769531	-191.2056427001953	369.5559387207031	289.6463012695312	-195.2366485595703	-222.2961120605469	391.2015686035156	-411.8930358886719	441.218017578125	117.6652679443359	-217.4380340576172	647.00927734375	152.5519866943359	-231.3529052734375	403.6172485351562	71.88956451416016	-277.3483581542969	431.2652587890625	54.3145637512207	-306.841064453125	411.9788513183594	47.25224304199219	-252.5095977783203	-270.3967590332031	440.7692565917969	-375.0142822265625
171	0.85	361.18408203125	1442.4287109375	-469.4309387207031	297.4647827148438	1445.564697265625	-181.1172180175781	310.3795166015625	987.7010498046876	-457.6321716308594	317.8777160644531	998.03076171875	-182.5692749023438	347.2899169921875	937.0578002929688	-430.615966796875	-221.9053039550781	448.73193359375	-353.0093994140625	346.0069885253906	954.7194213867188	-200.5008392333984	191.020751953125	875.3692016601562	-475.8940124511719	206.3358001708984	900.60888671875	-152.1403350830078	176.4154510498047	999.6256103515624	-329.7575378417969	231.4145202636719	641.1103515625	-476.9757080078125	-46.31612777709961	475.7775268554688	-436.2787475585938	154.2475433349609	655.257080078125	-456.4434204101562	220.4766387939453	542.746826171875	-460.2037353515625	594.2233276367188	100.111198425293	-181.91357421875	47.03950881958008	502.3582763671875	-457.7888793945312	142.0830230712891	558.8822021484375	-441.6540832519531	404.6751708984375	690.4721069335938	-147.4657745361328	-248.91796875	190.9217529296875	-377.8812255859375	329.0817565917969	665.918701171875	-142.5374755859375	439.5009765625	602.4482421875	-183.7372741699219	359.7305297851562	571.5565795898438	-168.4881286621094	165.3657073974609	488.5863342285156	-453.2242126464844	405.3081359863281	512.6171875	-178.3954162597656	71.82305908203125	423.5267028808594	-452.47021484375	-25.71382713317871	397.3256225585938	-434.6506652832031	449.9860229492188	395.8563842773438	-176.3571014404297	-264.3299865722656	259.5789794921875	-434.621826171875	366.0375366210938	380.3825073242188	-180.6212158203125	-243.4803161621094	434.9135131835938	-322.5030212402344	462.7987670898438	293.994873046875	-191.7694091796875	383.9017944335938	286.0541687011719	-194.8537139892578	-201.4794921875	395.4967346191406	-412.1719055175781	453.779296875	113.4406967163086	-217.9398040771484	659.4981079101562	146.4846649169922	-235.3103942871094	414.9396057128906	68.63949584960938	-276.9930725097656	441.3120727539062	50.51922607421875	-307.5599670410156	423.543212890625	43.84966278076172	-251.4622039794922	-248.3078918457031	446.2546691894531	-375.4888916015625
172	0.855	376.6715087890625	1438.012451171875	-469.1289978027344	314.4585876464844	1440.734741210938	-180.3014221191406	325.9547424316406	983.4766235351562	-457.6971435546875	333.8553466796875	993.9490356445312	-182.0638885498047	362.9761352539062	932.89697265625	-430.4647827148438	-199.9357452392578	451.3993530273438	-354.8780822753906	362.015625	951.0264282226562	-199.9200439453125	207.3249359130859	869.76220703125	-475.6842651367188	221.8753509521484	896.234130859375	-152.5248718261719	191.9177856445312	994.6619873046876	-329.6761779785156	251.6085205078125	636.0379638671875	-477.5303649902344	-22.95815658569336	475.1257934570312	-437.63037109375	173.7850341796875	648.6085205078125	-456.6416931152344	242.4194183349609	537.6193237304688	-461.2129821777344	605.574462890625	93.78492736816406	-185.0542602539062	70.9183578491211	499.2894287109375	-459.3388977050781	163.7990570068359	551.9735717773438	-442.156005859375	421.9888305664062	687.1984252929688	-147.8058166503906	-230.5057830810547	196.3490295410156	-378.6426696777344	346.8929443359375	663.016845703125	-144.5047912597656	455.7757263183594	598.439453125	-184.8941802978516	378.2676391601562	568.8272094726562	-169.8609008789062	188.4855346679688	482.8827514648438	-454.8097839355469	422.3966979980469	508.4060974121094	-178.1834564208984	93.59353637695312	419.7345275878906	-452.7740173339844	-4.257189273834229	396.1007385253906	-434.9878540039062	465.5935668945312	390.9076232910156	-177.0940093994141	-245.2129516601562	265.3240051269531	-434.9579162597656	381.5296936035156	376.9872436523438	-180.1473846435547	-221.2384033203125	439.7440795898438	-323.0791625976562	476.9838562011719	288.9688110351562	-192.5691986083984	398.0428771972656	282.3765869140625	-194.2707061767578	-179.7785186767578	400.2380065917969	-413.5498962402344	465.4449768066406	109.6839065551758	-218.3741760253906	671.06884765625	138.3652648925781	-240.0955963134766	424.4703369140625	68.30445098876953	-276.9547729492188	449.5197143554688	48.37990188598633	-307.609375	431.2604370117188	44.71981430053711	-251.0399780273438	-225.8523254394531	451.7086486816406	-376.1159973144531
173	0.86	392.3261413574219	1433.1533203125	-468.6932067871094	331.2267456054688	1435.506225585938	-179.3427429199219	341.2966613769531	978.9616088867188	-457.5403747558594	349.2914733886719	989.7191162109376	-181.5	378.6512145996094	928.7750244140624	-430.2286071777344	-174.3256072998047	451.8170166015625	-356.3074340820312	376.3463134765625	946.9420776367188	-200.0601501464844	223.8188018798828	864.3414306640625	-476.10546875	237.3173522949219	891.64013671875	-153.3143463134766	207.4150238037109	989.5977783203124	-330.2228698730469	272.2737731933594	630.7843627929688	-478.0513916015625	0.8860780596733093	474.4388732910156	-439.073974609375	195.5185089111328	642.0784912109375	-457.3939208984375	264.50048828125	531.9140625	-462.2682495117188	615.0140380859375	85.98680114746094	-188.7124328613281	95.52497863769533	495.8386840820312	-460.8951416015625	185.4331817626953	545.0411987304688	-443.2176208496094	439.2711486816406	683.4030151367188	-147.9739532470703	-211.9569702148438	201.2907104492188	-379.6803283691406	364.6549682617188	660.0525512695312	-145.1618957519531	473.4977416992188	594.8092041015625	-184.8671264648438	395.9018249511719	565.281982421875	-170.5740661621094	211.6210784912109	477.2340698242188	-456.1288146972656	439.3337707519531	505.1439514160156	-178.1183013916016	116.0766296386719	415.9443664550781	-454.0872192382812	16.98920440673828	395.1460266113281	-435.5295104980469	481.4222412109375	386.3469543457031	-177.68701171875	-225.6326751708984	271.441650390625	-436.320556640625	396.8328857421875	373.0685729980469	-179.6060791015625	-194.595458984375	444.5084838867188	-321.3783264160156	490.7218017578125	284.20166015625	-193.4166564941406	411.9795837402344	278.7235107421875	-193.8522033691406	-157.8283233642578	404.1056823730469	-413.6951293945312	476.6194458007812	105.4115600585938	-219.3255920410156	681.8106689453125	126.9831390380859	-245.1700897216797	432.7435913085938	69.68661499023438	-277.2560424804688	454.8869018554688	46.61676025390625	-307.7487182617188	437.8381958007812	46.28150939941406	-250.8513336181641	-202.5362854003906	456.744873046875	-376.3404235839844
174	0.865	407.7845458984375	1428.261352539062	-468.15625	348.1389770507812	1430.159423828125	-178.2038879394531	356.9840087890625	974.5327758789062	-457.6598510742188	364.9264831542969	985.3226318359376	-181.3098907470703	394.3515319824219	924.273681640625	-429.7653503417969	-153.4067077636719	459.5980224609375	-354.5567932128906	392.6275024414062	943.0518798828124	-199.8174285888672	240.1782073974609	858.6033935546875	-476.2703857421875	252.7433929443359	886.7899169921875	-153.7499694824219	222.9296264648438	984.382568359375	-330.1409301757812	292.4131164550781	624.9481811523438	-479.0796508789062	25.03347587585449	473.5125427246094	-440.1148376464844	216.4615020751953	635.3681030273438	-457.677490234375	286.8082885742188	526.1995239257812	-463.2407836914062	622.0965576171875	76.00271606445312	-191.762939453125	120.0444946289062	492.4942626953125	-462.0169677734375	207.5771789550781	538.1529541015625	-444.503173828125	456.4871215820312	679.6113891601562	-148.0617828369141	-191.9948272705078	206.4299774169922	-381.2113342285156	382.0430603027344	656.014404296875	-146.4900054931641	490.8868713378906	590.9154663085938	-184.8705902099609	413.5827026367188	561.3994140625	-171.3988342285156	234.9998168945312	471.1809997558594	-457.306640625	456.2915649414062	501.3948364257812	-178.6407470703125	138.6403503417969	412.170654296875	-455.2263488769531	39.76540374755859	393.8860473632812	-436.2732543945312	496.8708801269531	381.4429016113281	-178.7025299072266	-205.0986938476562	276.8526000976562	-437.1051025390625	412.1381225585938	369.5661010742188	-178.9777221679688	-174.2321929931641	450.1759338378906	-320.6817932128906	504.4476623535156	279.3056640625	-194.9714813232422	425.3553161621094	274.1276245117188	-193.4948272705078	-134.9175262451172	408.1308288574219	-414.3841552734375	485.9955749511719	100.9675674438477	-219.8140869140625	690.6142578125	112.901481628418	-248.9155426025391	439.0527954101562	70.64389038085938	-277.6401062011719	458.693115234375	46.43617630004883	-307.9765319824219	442.4169311523438	47.53183364868164	-250.7047882080078	-179.2856292724609	461.7010498046875	-376.6618957519531
